<svg width="133" height="25" viewBox="0 0 133 25" fill="none" xmlns="http://www.w3.org/2000/svg">
<path d="M132.552 12.3636C132.552 14.9242 132.06 17.0947 131.075 18.875C130.09 20.6553 128.757 22.0076 127.075 22.9318C125.401 23.8561 123.522 24.3182 121.439 24.3182C119.348 24.3182 117.465 23.8523 115.791 22.9205C114.117 21.9886 112.787 20.6364 111.802 18.8636C110.825 17.0833 110.336 14.9167 110.336 12.3636C110.336 9.80303 110.825 7.63257 111.802 5.85227C112.787 4.07197 114.117 2.71969 115.791 1.79545C117.465 0.871209 119.348 0.409088 121.439 0.409088C123.522 0.409088 125.401 0.871209 127.075 1.79545C128.757 2.71969 130.09 4.07197 131.075 5.85227C132.06 7.63257 132.552 9.80303 132.552 12.3636ZM126.802 12.3636C126.802 10.8485 126.586 9.56818 126.155 8.52273C125.73 7.47727 125.117 6.6856 124.314 6.14772C123.518 5.60985 122.56 5.34091 121.439 5.34091C120.325 5.34091 119.367 5.60985 118.564 6.14772C117.761 6.6856 117.143 7.47727 116.711 8.52273C116.287 9.56818 116.075 10.8485 116.075 12.3636C116.075 13.8788 116.287 15.1591 116.711 16.2045C117.143 17.25 117.761 18.0417 118.564 18.5795C119.367 19.1174 120.325 19.3864 121.439 19.3864C122.56 19.3864 123.518 19.1174 124.314 18.5795C125.117 18.0417 125.73 17.25 126.155 16.2045C126.586 15.1591 126.802 13.8788 126.802 12.3636Z" fill="white"/>
<path d="M84.4312 5.29545V0.727264H104.102V5.29545H97.0449V24H91.4994V5.29545H84.4312Z" fill="white"/>
<path d="M76.8557 0.727264V24H72.083L62.8216 10.5682H62.6739V24H57.0489V0.727264H61.8898L71.0489 14.1364H71.242V0.727264H76.8557Z" fill="white"/>
<path d="M32.5954 24H26.55L34.4023 0.727264H41.8909L49.7432 24H43.6977L38.2318 6.5909H38.05L32.5954 24ZM31.7886 14.8409H44.425V19.1136H31.7886V14.8409Z" fill="white"/>
<path d="M9.36363 24H0.761353V0.727264H9.35226C11.7235 0.727264 13.7651 1.19317 15.4773 2.12499C17.197 3.04923 18.5227 4.38257 19.4545 6.12499C20.3864 7.85984 20.8523 9.9356 20.8523 12.3523C20.8523 14.7765 20.3864 16.8598 19.4545 18.6023C18.5303 20.3447 17.2083 21.6818 15.4886 22.6136C13.7689 23.5379 11.7273 24 9.36363 24ZM6.38635 19.2045H9.14772C10.4507 19.2045 11.553 18.9848 12.4545 18.5454C13.3636 18.0985 14.0492 17.375 14.5114 16.375C14.981 15.3674 15.2159 14.0265 15.2159 12.3523C15.2159 10.678 14.981 9.34469 14.5114 8.35226C14.0417 7.35226 13.3485 6.63257 12.4318 6.19317C11.5227 5.7462 10.4015 5.52272 9.06817 5.52272H6.38635V19.2045Z" fill="white"/>
</svg>
