<?xml version="1.0" standalone="no"?>
<!DOCTYPE svg PUBLIC "-//W3C//DTD SVG 20010904//EN"
 "http://www.w3.org/TR/2001/REC-SVG-20010904/DTD/svg10.dtd">
<svg version="1.0" xmlns="http://www.w3.org/2000/svg"
 width="874.000000pt" height="134.000000pt" viewBox="0 0 874.000000 134.000000"
 preserveAspectRatio="xMidYMid meet">

<g transform="translate(0.000000,134.000000) scale(0.100000,-0.100000)"
fill="#000000" stroke="none">
<path d="M1804 1180 c-16 -6 -52 -99 -182 -477 -90 -257 -162 -478 -162 -491
0 -15 9 -26 28 -33 30 -12 149 -6 162 7 4 5 23 55 41 112 l33 102 186 0 186 0
32 -99 c18 -55 40 -105 49 -112 21 -18 154 -25 182 -10 12 7 21 21 21 35 0 12
-72 229 -160 482 -112 320 -166 464 -181 477 -17 14 -40 17 -118 16 -53 0
-105 -4 -117 -9z m175 -419 c34 -102 61 -186 61 -188 0 -2 -58 -3 -130 -3 -71
0 -130 3 -130 7 0 22 126 381 131 375 4 -4 34 -90 68 -191z"/>
<path d="M3173 1180 l-23 -9 -1 -343 0 -343 -45 90 c-113 223 -289 550 -310
574 -21 25 -28 26 -134 29 -95 3 -114 1 -131 -14 -18 -16 -19 -36 -19 -496 0
-545 -10 -493 96 -493 102 0 96 -26 92 386 l-3 357 54 -107 c138 -274 305
-579 332 -604 28 -25 35 -27 123 -27 143 0 130 -48 134 510 2 420 1 468 -14
480 -19 17 -121 23 -151 10z"/>
<path d="M3933 1180 l-23 -9 0 -491 c0 -562 -12 -505 106 -505 108 0 104 -9
104 231 l0 204 180 0 180 0 0 -204 c0 -240 -4 -231 104 -231 118 0 106 -57
106 505 l0 490 -26 10 c-14 6 -49 10 -79 10 -30 0 -65 -4 -79 -10 l-26 -10 0
-190 0 -190 -180 0 -180 0 0 184 c0 180 -1 185 -22 200 -25 18 -127 21 -165 6z"/>
<path d="M4940 1184 c-38 -15 -40 -30 -40 -323 0 -327 9 -430 43 -505 58 -125
186 -195 363 -196 225 -1 370 100 409 286 17 80 22 698 5 724 -11 18 -133 26
-172 11 l-27 -10 -3 -348 -3 -348 -27 -47 c-73 -123 -277 -119 -347 7 -14 26
-17 80 -21 377 -4 261 -8 350 -18 360 -13 13 -136 22 -162 12z"/>
<path d="M5844 1176 c-18 -14 -13 -26 129 -310 l147 -296 0 -178 c0 -222 -2
-217 108 -217 116 0 112 -7 112 206 l0 178 145 291 c80 160 145 298 145 305 0
23 -35 35 -104 35 -102 0 -106 -3 -166 -135 -29 -65 -67 -153 -85 -197 -18
-43 -35 -81 -37 -84 -3 -3 -13 14 -23 38 -9 24 -48 113 -87 199 -53 119 -76
159 -94 168 -37 16 -166 14 -190 -3z"/>
<path d="M7413 1180 l-23 -9 -1 -343 0 -343 -45 90 c-113 223 -289 550 -310
574 -21 25 -28 26 -134 29 -95 3 -114 1 -131 -14 -18 -16 -19 -36 -19 -496 0
-545 -10 -493 96 -493 102 0 96 -26 92 386 l-3 357 54 -107 c138 -274 305
-579 332 -604 28 -25 35 -27 123 -27 143 0 130 -48 134 510 2 420 1 468 -14
480 -19 17 -121 23 -151 10z"/>
<path d="M7813 1180 l-23 -9 0 -491 c0 -562 -12 -505 106 -505 108 0 104 -9
104 231 l0 204 180 0 180 0 0 -204 c0 -240 -4 -231 104 -231 118 0 106 -57
106 505 l0 490 -26 10 c-14 6 -49 10 -79 10 -30 0 -65 -4 -79 -10 l-26 -10 0
-190 0 -190 -180 0 -180 0 0 184 c0 180 -1 185 -22 200 -25 18 -127 21 -165 6z"/>
<path d="M186 1158 c-14 -20 -16 -84 -16 -496 0 -540 -11 -487 101 -487 41 0
72 5 82 14 15 12 17 56 19 398 l3 384 130 -377 c71 -208 137 -387 147 -398 14
-18 27 -21 97 -21 44 0 85 5 90 10 6 6 73 184 148 395 133 372 138 384 145
340 3 -25 7 -199 7 -388 1 -392 -9 -357 102 -357 109 0 100 -43 97 495 -3 444
-4 469 -22 489 -17 19 -30 21 -143 21 -123 0 -125 0 -151 -27 -19 -20 -62
-120 -146 -346 -66 -175 -122 -314 -126 -310 -4 4 -55 143 -115 308 -59 165
-112 308 -117 318 -5 10 -24 27 -41 37 -27 17 -51 20 -154 20 -115 0 -123 -1
-137 -22z"/>
</g>
</svg>
